<svg xmlns="http://www.w3.org/2000/svg" xmlns:xlink="http://www.w3.org/1999/xlink" style="margin:auto;background:#f1f2f3;z-index:1;position:relative" width="1920" height="1080" preserveAspectRatio="xMidYMid" display="block"><g><path id="a" d="M157.088 659.153c0 28.541-6.984 8.198-15.182 8.198s-15.182 20.343-15.182-8.198 6.984-8.198 15.182-8.198 15.182-20.344 15.182 8.198z" fill="none" stroke="none"/><circle r="4.601" fill="#670de5"><animateMotion begin="-7.165043621602017s" dur="10s" repeatCount="indefinite"><mpath xlink:href="#a"/></animateMotion></circle><path id="b" d="M1280.655 322.61c0 30.642-7.498 8.801-16.3 8.801s-16.298 21.84-16.298-8.801 7.497-8.802 16.299-8.802 16.299-21.84 16.299 8.802z" fill="none" stroke="none"/><circle r="4.482" fill="#670de5"><animateMotion begin="-2.844655123147015s" dur="10s" repeatCount="indefinite"><mpath xlink:href="#b"/></animateMotion></circle><path id="c" d="M1467 9.291c0 28.455-6.962 8.174-15.135 8.174s-15.136 20.281-15.136-8.174 6.962-8.173 15.136-8.173S1467-19.164 1467 9.29z" fill="none" stroke="none"/><circle r="7.067" fill="#8bc54c"><animateMotion begin="-1.2738977466736245s" dur="10s" repeatCount="indefinite"><mpath xlink:href="#c"/></animateMotion></circle><path id="d" d="M983.52 935.849c0 33.194-8.123 9.534-17.657 9.534s-17.657 23.66-17.657-9.534 8.122-9.535 17.657-9.535 17.657-23.66 17.657 9.535z" fill="none" stroke="none"/><circle r="4.041" fill="#670de5"><animateMotion begin="-0.5971876579985058s" dur="10s" repeatCount="indefinite"><mpath xlink:href="#d"/></animateMotion></circle><path id="e" d="M975.278 365.634c0 27.082-6.626 7.779-14.405 7.779s-14.406 19.303-14.406-7.779 6.627-7.779 14.406-7.779 14.405-19.303 14.405 7.78z" fill="none" stroke="none"/><circle r="7.932" fill="#8bc54c"><animateMotion begin="-7.601975427147451s" dur="10s" repeatCount="indefinite"><mpath xlink:href="#e"/></animateMotion></circle><path id="f" d="M1522.18 540.299c0 34.7-8.49 9.967-18.457 9.967s-18.458 24.733-18.458-9.967 8.491-9.968 18.458-9.968 18.458-24.733 18.458 9.968z" fill="none" stroke="none"/><circle r="7.384" fill="#e44d26"><animateMotion begin="-2.571196597092278s" dur="10s" repeatCount="indefinite"><mpath xlink:href="#f"/></animateMotion></circle><path id="g" d="M271.289 405.121c0 25.05-6.13 7.195-13.324 7.195s-13.324 17.854-13.324-7.195 6.13-7.194 13.324-7.194 13.324-17.854 13.324 7.194z" fill="none" stroke="none"/><circle r="4.645" fill="#e44d26"><animateMotion begin="-5.417431539963069s" dur="10s" repeatCount="indefinite"><mpath xlink:href="#g"/></animateMotion></circle><path id="h" d="M1802.109 1061.517c0 24.756-6.057 7.11-13.168 7.11s-13.168 17.646-13.168-7.11 6.057-7.111 13.168-7.111 13.168-17.645 13.168 7.11z" fill="none" stroke="none"/><circle r="5.983" fill="#e44d26"><animateMotion begin="-8.77798312577195s" dur="10s" repeatCount="indefinite"><mpath xlink:href="#h"/></animateMotion></circle><path id="i" d="M1564.68 362.882c0 37.465-9.167 10.76-19.929 10.76s-19.928 26.705-19.928-10.76 9.167-10.762 19.928-10.762 19.929-26.704 19.929 10.762z" fill="none" stroke="none"/><circle r="5.189" fill="#670de5"><animateMotion begin="-7.809256743983138s" dur="10s" repeatCount="indefinite"><mpath xlink:href="#i"/></animateMotion></circle><path id="j" d="M98.125 920.897c0 27.077-6.626 7.778-14.403 7.778s-14.402 19.299-14.402-7.778 6.625-7.777 14.402-7.777 14.403-19.299 14.403 7.777z" fill="none" stroke="none"/><circle r="5.931" fill="#fdd83c"><animateMotion begin="-2.807697759803016s" dur="10s" repeatCount="indefinite"><mpath xlink:href="#j"/></animateMotion></circle><path id="k" d="M1427.973 484.16c0 30.983-7.581 8.9-16.48 8.9s-16.481 22.083-16.481-8.9 7.58-8.9 16.48-8.9 16.481-22.084 16.481 8.9z" fill="none" stroke="none"/><circle r="5.147" fill="#34a7da"><animateMotion begin="-2.5620109573885985s" dur="10s" repeatCount="indefinite"><mpath xlink:href="#k"/></animateMotion></circle><path id="l" d="M1873.35 968.733c0 35.056-8.577 10.069-18.647 10.069s-18.646 24.987-18.646-10.07 8.577-10.069 18.646-10.069 18.647-24.986 18.647 10.07z" fill="none" stroke="none"/><circle r="7.586" fill="#34a7da"><animateMotion begin="-8.440755341323483s" dur="10s" repeatCount="indefinite"><mpath xlink:href="#l"/></animateMotion></circle><path id="m" d="M805.705 218.272c0 30.814-7.54 8.851-16.39 8.851s-16.391 21.963-16.391-8.85 7.54-8.852 16.39-8.852 16.39-21.963 16.39 8.851z" fill="none" stroke="none"/><circle r="5.387" fill="#670de5"><animateMotion begin="-7.686786200745182s" dur="10s" repeatCount="indefinite"><mpath xlink:href="#m"/></animateMotion></circle><path id="n" d="M1184.852 470.963c0 19.179-4.693 5.509-10.202 5.509s-10.201 13.67-10.201-5.509 4.693-5.508 10.201-5.508 10.202-13.67 10.202 5.508z" fill="none" stroke="none"/><circle r="7.424" fill="#e44d26"><animateMotion begin="-4.662781380501806s" dur="10s" repeatCount="indefinite"><mpath xlink:href="#n"/></animateMotion></circle><path id="o" d="M278.791 971.63c0 25.932-6.345 7.45-13.793 7.45s-13.793 18.482-13.793-7.45 6.345-7.448 13.793-7.448 13.793-18.483 13.793 7.449z" fill="none" stroke="none"/><circle r="4.651" fill="#fdd83c"><animateMotion begin="-3.3943850696843603s" dur="10s" repeatCount="indefinite"><mpath xlink:href="#o"/></animateMotion></circle><path id="p" d="M955.117 170.453c0 33.04-8.084 9.49-17.575 9.49s-17.575 23.55-17.575-9.49 8.085-9.49 17.575-9.49 17.575-23.55 17.575 9.49z" fill="none" stroke="none"/><circle r="7.249" fill="#8bc54c"><animateMotion begin="-5.483465006944379s" dur="10s" repeatCount="indefinite"><mpath xlink:href="#p"/></animateMotion></circle><path id="q" d="M1055.169 240.032c0 22.207-5.434 6.378-11.813 6.378s-11.813 15.83-11.813-6.378 5.434-6.38 11.813-6.38 11.813-15.828 11.813 6.38z" fill="none" stroke="none"/><circle r="7.968" fill="#8bc54c"><animateMotion begin="-1.9216317581618036s" dur="10s" repeatCount="indefinite"><mpath xlink:href="#q"/></animateMotion></circle><path id="r" d="M1845.965 341.165c0 24.274-5.939 6.972-12.911 6.972s-12.912 17.302-12.912-6.972 5.94-6.972 12.912-6.972 12.911-17.302 12.911 6.972z" fill="none" stroke="none"/><circle r="7.042" fill="#8bc54c"><animateMotion begin="-8.497654781403742s" dur="10s" repeatCount="indefinite"><mpath xlink:href="#r"/></animateMotion></circle><path id="s" d="M256.897 28.962c0 29.607-7.244 8.504-15.749 8.504S225.4 58.57 225.4 28.962s7.244-8.505 15.748-8.505 15.75-21.103 15.75 8.505z" fill="none" stroke="none"/><circle r="6.962" fill="#34a7da"><animateMotion begin="-2.637811124963121s" dur="10s" repeatCount="indefinite"><mpath xlink:href="#s"/></animateMotion></circle><path id="t" d="M1864.842 492.008c0 21.142-5.173 6.073-11.245 6.073s-11.246 15.069-11.246-6.073 5.173-6.073 11.246-6.073 11.245-15.069 11.245 6.073z" fill="none" stroke="none"/><circle r="5.689" fill="#fdd83c"><animateMotion begin="-8.067748908998515s" dur="10s" repeatCount="indefinite"><mpath xlink:href="#t"/></animateMotion></circle><path id="u" d="M807.26 404.774c0 23.203-5.678 6.665-12.342 6.665s-12.342 16.538-12.342-6.665 5.677-6.665 12.342-6.665 12.342-16.538 12.342 6.665z" fill="none" stroke="none"/><circle r="6.038" fill="#8bc54c"><animateMotion begin="-7.152758246824411s" dur="10s" repeatCount="indefinite"><mpath xlink:href="#u"/></animateMotion></circle><path id="v" d="M1813.407 597.059c0 36.33-8.89 10.435-19.325 10.435s-19.324 25.896-19.324-10.435 8.889-10.436 19.324-10.436 19.325-25.895 19.325 10.436z" fill="none" stroke="none"/><circle r="7.437" fill="#e44d26"><animateMotion begin="-3.667782695403463s" dur="10s" repeatCount="indefinite"><mpath xlink:href="#v"/></animateMotion></circle><path id="w" d="M1624.237 776.488c0 31.367-7.675 9.01-16.685 9.01s-16.684 22.357-16.684-9.01 7.675-9.01 16.684-9.01 16.685-22.357 16.685 9.01z" fill="none" stroke="none"/><circle r="4.131" fill="#8bc54c"><animateMotion begin="-1.7337527995149582s" dur="10s" repeatCount="indefinite"><mpath xlink:href="#w"/></animateMotion></circle><path id="x" d="M1138.102 597.347c0 24.677-6.038 7.088-13.126 7.088s-13.126 17.59-13.126-7.088 6.038-7.088 13.126-7.088 13.126-17.589 13.126 7.088z" fill="none" stroke="none"/><circle r="5.684" fill="#8bc54c"><animateMotion begin="-3.7163284641975136s" dur="10s" repeatCount="indefinite"><mpath xlink:href="#x"/></animateMotion></circle><path id="y" d="M425.136 349.548c0 21.048-5.15 6.046-11.195 6.046s-11.196 15.002-11.196-6.046 5.15-6.045 11.196-6.045 11.195-15.002 11.195 6.045z" fill="none" stroke="none"/><circle r="4.404" fill="#8bc54c"><animateMotion begin="-4.164727992512407s" dur="10s" repeatCount="indefinite"><mpath xlink:href="#y"/></animateMotion></circle><path id="z" d="M531.757 613.525c0 30.453-7.452 8.747-16.199 8.747s-16.199 21.706-16.199-8.747 7.452-8.748 16.2-8.748 16.198-21.706 16.198 8.748z" fill="none" stroke="none"/><circle r="5.505" fill="#fdd83c"><animateMotion begin="-5.8834138669829805s" dur="10s" repeatCount="indefinite"><mpath xlink:href="#z"/></animateMotion></circle><path id="A" d="M1485.297 855.622c0 20.123-4.923 5.78-10.703 5.78s-10.704 14.343-10.704-5.78 4.924-5.78 10.704-5.78 10.703-14.343 10.703 5.78z" fill="none" stroke="none"/><circle r="4.921" fill="#8bc54c"><animateMotion begin="-6.470119556566689s" dur="10s" repeatCount="indefinite"><mpath xlink:href="#A"/></animateMotion></circle><path id="B" d="M751.23 434.92c0 18.808-4.603 5.403-10.005 5.403s-10.004 13.405-10.004-5.402 4.602-5.403 10.004-5.403 10.004-13.405 10.004 5.403z" fill="none" stroke="none"/><circle r="4.11" fill="#8bc54c"><animateMotion begin="-7.664485873668195s" dur="10s" repeatCount="indefinite"><mpath xlink:href="#B"/></animateMotion></circle><path id="C" d="M827.863 598.865c0 34.1-8.344 9.795-18.139 9.795s-18.138 24.305-18.138-9.795 8.344-9.794 18.138-9.794 18.139-24.306 18.139 9.794z" fill="none" stroke="none"/><circle r="6.235" fill="#34a7da"><animateMotion begin="-7.532581263753539s" dur="10s" repeatCount="indefinite"><mpath xlink:href="#C"/></animateMotion></circle><path id="D" d="M828.596 923.56c0 34.409-8.42 9.884-18.303 9.884s-18.302 24.525-18.302-9.884 8.419-9.883 18.302-9.883 18.303-24.526 18.303 9.883z" fill="none" stroke="none"/><circle r="5.063" fill="#8bc54c"><animateMotion begin="-9.185345596868224s" dur="10s" repeatCount="indefinite"><mpath xlink:href="#D"/></animateMotion></circle><path id="E" d="M773.303 226.864c0 21.214-5.19 6.093-11.284 6.093s-11.284 15.12-11.284-6.093 5.19-6.093 11.284-6.093 11.284-15.12 11.284 6.093z" fill="none" stroke="none"/><circle r="5.92" fill="#34a7da"><animateMotion begin="-6.252808503664575s" dur="10s" repeatCount="indefinite"><mpath xlink:href="#E"/></animateMotion></circle><path id="F" d="M949.9 738.006c0 36.764-8.995 10.56-19.555 10.56s-19.555 26.204-19.555-10.56 8.995-10.56 19.555-10.56 19.555-26.204 19.555 10.56z" fill="none" stroke="none"/><circle r="7.048" fill="#34a7da"><animateMotion begin="-7.773610449134399s" dur="10s" repeatCount="indefinite"><mpath xlink:href="#F"/></animateMotion></circle><path id="G" d="M1507.49 232.937c0 22.5-5.506 6.463-11.969 6.463s-11.968 16.037-11.968-6.463 5.506-6.463 11.968-6.463 11.968-16.037 11.968 6.463z" fill="none" stroke="none"/><circle r="7.558" fill="#670de5"><animateMotion begin="-7.7372148249688895s" dur="10s" repeatCount="indefinite"><mpath xlink:href="#G"/></animateMotion></circle><path id="H" d="M1359.032 252.78c0 19.328-4.729 5.552-10.28 5.552s-10.28 13.776-10.28-5.552 4.728-5.551 10.28-5.551 10.28-13.776 10.28 5.551z" fill="none" stroke="none"/><circle r="5.4" fill="#670de5"><animateMotion begin="-2.7211377522691294s" dur="10s" repeatCount="indefinite"><mpath xlink:href="#H"/></animateMotion></circle><path id="I" d="M295.07 840.574c0 33.937-8.304 9.748-18.051 9.748s-18.052 24.19-18.052-9.748 8.304-9.748 18.052-9.748 18.051-24.189 18.051 9.748z" fill="none" stroke="none"/><circle r="6.506" fill="#8bc54c"><animateMotion begin="-0.7442522014064279s" dur="10s" repeatCount="indefinite"><mpath xlink:href="#I"/></animateMotion></circle><path id="J" d="M462.415 113.483c0 20.563-5.031 5.907-10.938 5.907s-10.937 14.656-10.937-5.907 5.031-5.906 10.937-5.906 10.938-14.656 10.938 5.906z" fill="none" stroke="none"/><circle r="6.272" fill="#e44d26"><animateMotion begin="-5.966335212771545s" dur="10s" repeatCount="indefinite"><mpath xlink:href="#J"/></animateMotion></circle><path id="K" d="M360.992 1066.726c0 33.265-8.14 9.555-17.694 9.555s-17.695 23.71-17.695-9.555 8.14-9.555 17.695-9.555 17.694-23.71 17.694 9.555z" fill="none" stroke="none"/><circle r="7.189" fill="#8bc54c"><animateMotion begin="-5.61378511748488s" dur="10s" repeatCount="indefinite"><mpath xlink:href="#K"/></animateMotion></circle><path id="L" d="M632.78 793.053c0 35.13-8.595 10.09-18.685 10.09s-18.686 25.04-18.686-10.09 8.596-10.09 18.686-10.09 18.686-25.039 18.686 10.09z" fill="none" stroke="none"/><circle r="5.443" fill="#8bc54c"><animateMotion begin="-2.3290238835988886s" dur="10s" repeatCount="indefinite"><mpath xlink:href="#L"/></animateMotion></circle><path id="M" d="M1287.336 930.205c0 22.83-5.586 6.558-12.144 6.558s-12.144 16.273-12.144-6.558 5.587-6.558 12.144-6.558 12.144-16.273 12.144 6.558z" fill="none" stroke="none"/><circle r="5.159" fill="#e44d26"><animateMotion begin="-8.09572782545763s" dur="10s" repeatCount="indefinite"><mpath xlink:href="#M"/></animateMotion></circle><path id="N" d="M1291.21 571.551c0 31.86-7.794 9.151-16.945 9.151s-16.947 22.708-16.947-9.15 7.796-9.151 16.947-9.151 16.946-22.708 16.946 9.15z" fill="none" stroke="none"/><circle r="5.506" fill="#34a7da"><animateMotion begin="-2.483737553701366s" dur="10s" repeatCount="indefinite"><mpath xlink:href="#N"/></animateMotion></circle><path id="O" d="M206.81 591.66c0 25.359-6.205 7.284-13.489 7.284s-13.489 18.075-13.489-7.284 6.205-7.284 13.49-7.284 13.488-18.075 13.488 7.284z" fill="none" stroke="none"/><circle r="5.657" fill="#8bc54c"><animateMotion begin="-9.51440263026073s" dur="10s" repeatCount="indefinite"><mpath xlink:href="#O"/></animateMotion></circle><path id="P" d="M394.668 957.068c0 34.542-8.452 9.922-18.374 9.922s-18.373 24.62-18.373-9.922 8.452-9.922 18.373-9.922 18.374-24.62 18.374 9.922z" fill="none" stroke="none"/><circle r="4.285" fill="#670de5"><animateMotion begin="-5.661088538345136s" dur="10s" repeatCount="indefinite"><mpath xlink:href="#P"/></animateMotion></circle><path id="Q" d="M1502.334 261.26c0 21.922-5.364 6.297-11.661 6.297s-11.66 15.625-11.66-6.297 5.363-6.297 11.66-6.297 11.66-15.626 11.66 6.297z" fill="none" stroke="none"/><circle r="7.894" fill="#e44d26"><animateMotion begin="-4.491568251377991s" dur="10s" repeatCount="indefinite"><mpath xlink:href="#Q"/></animateMotion></circle><path id="R" d="M769.3 284.515c0 24.317-5.95 6.985-12.936 6.985s-12.934 17.332-12.934-6.985 5.95-6.985 12.934-6.985 12.935-17.332 12.935 6.985z" fill="none" stroke="none"/><circle r="6.428" fill="#670de5"><animateMotion begin="-0.45159241919446647s" dur="10s" repeatCount="indefinite"><mpath xlink:href="#R"/></animateMotion></circle><path id="S" d="M1922.54 946.522c0 26.607-6.511 7.642-14.154 7.642s-14.152 18.965-14.152-7.642 6.51-7.643 14.152-7.643 14.153-18.964 14.153 7.643z" fill="none" stroke="none"/><circle r="5.687" fill="#e44d26"><animateMotion begin="-6.1643749642952095s" dur="10s" repeatCount="indefinite"><mpath xlink:href="#S"/></animateMotion></circle><path id="T" d="M1005.766 815.371c0 33.445-8.183 9.607-17.79 9.607s-17.79 23.838-17.79-9.607 8.184-9.606 17.79-9.606 17.79-23.839 17.79 9.606z" fill="none" stroke="none"/><circle r="5.533" fill="#34a7da"><animateMotion begin="-2.9702890581508523s" dur="10s" repeatCount="indefinite"><mpath xlink:href="#T"/></animateMotion></circle><path id="U" d="M497.57 558.991c0 23.387-5.723 6.718-12.44 6.718s-12.44 16.67-12.44-6.718 5.722-6.717 12.44-6.717 12.44-16.67 12.44 6.717z" fill="none" stroke="none"/><circle r="5.755" fill="#e44d26"><animateMotion begin="-4.7702106781055225s" dur="10s" repeatCount="indefinite"><mpath xlink:href="#U"/></animateMotion></circle><path id="V" d="M555.302 348.91c0 31.977-7.824 9.185-17.009 9.185s-17.008 22.792-17.008-9.184 7.824-9.185 17.008-9.185 17.009-22.791 17.009 9.185z" fill="none" stroke="none"/><circle r="4.177" fill="#8bc54c"><animateMotion begin="-2.335700011315398s" dur="10s" repeatCount="indefinite"><mpath xlink:href="#V"/></animateMotion></circle><path id="W" d="M1879.343 653.7c0 19.943-4.88 5.729-10.608 5.729s-10.608 14.214-10.608-5.729 4.88-5.728 10.608-5.728 10.608-14.215 10.608 5.728z" fill="none" stroke="none"/><circle r="4.455" fill="#670de5"><animateMotion begin="-4.475867822822941s" dur="10s" repeatCount="indefinite"><mpath xlink:href="#W"/></animateMotion></circle><path id="X" d="M107.501 971.44c0 37.515-9.18 10.775-19.955 10.775s-19.955 26.74-19.955-10.776 9.179-10.776 19.955-10.776 19.955-26.74 19.955 10.776z" fill="none" stroke="none"/><circle r="5.93" fill="#8bc54c"><animateMotion begin="-3.2215210791912585s" dur="10s" repeatCount="indefinite"><mpath xlink:href="#X"/></animateMotion></circle><path id="Y" d="M408.808 570.64c0 24.68-6.039 7.089-13.128 7.089s-13.128 17.591-13.128-7.09 6.039-7.089 13.128-7.089 13.128-17.592 13.128 7.09z" fill="none" stroke="none"/><circle r="5.266" fill="#34a7da"><animateMotion begin="-5.091885558074067s" dur="10s" repeatCount="indefinite"><mpath xlink:href="#Y"/></animateMotion></circle><path id="Z" d="M819.957 449.196c0 32.562-7.967 9.353-17.32 9.353s-17.32 23.21-17.32-9.353 7.967-9.353 17.32-9.353 17.32-23.21 17.32 9.353z" fill="none" stroke="none"/><circle r="7.45" fill="#e44d26"><animateMotion begin="-2.2095682863218524s" dur="10s" repeatCount="indefinite"><mpath xlink:href="#Z"/></animateMotion></circle><path id="aa" d="M1225.208 341.743c0 32.103-7.855 9.22-17.076 9.22s-17.077 22.883-17.077-9.22 7.855-9.221 17.077-9.221 17.076-22.883 17.076 9.22z" fill="none" stroke="none"/><circle r="7.699" fill="#34a7da"><animateMotion begin="-1.8498609881898864s" dur="10s" repeatCount="indefinite"><mpath xlink:href="#aa"/></animateMotion></circle><path id="ab" d="M88.68 227.508c0 27.17-6.648 7.804-14.452 7.804s-14.452 19.365-14.452-7.804 6.648-7.804 14.452-7.804 14.452-19.366 14.452 7.804z" fill="none" stroke="none"/><circle r="5.701" fill="#670de5"><animateMotion begin="-6.778256379034682s" dur="10s" repeatCount="indefinite"><mpath xlink:href="#ab"/></animateMotion></circle><path id="ac" d="M732.408 856.204c0 27.592-6.751 7.925-14.677 7.925s-14.676 19.667-14.676-7.925 6.751-7.925 14.676-7.925 14.677-19.667 14.677 7.925z" fill="none" stroke="none"/><circle r="5.116" fill="#e44d26"><animateMotion begin="-6.769336729317894s" dur="10s" repeatCount="indefinite"><mpath xlink:href="#ac"/></animateMotion></circle><path id="ad" d="M1793.278 750.697c0 30.46-7.453 8.75-16.202 8.75s-16.203 21.71-16.203-8.75 7.453-8.75 16.203-8.75 16.202-21.711 16.202 8.75z" fill="none" stroke="none"/><circle r="7.374" fill="#34a7da"><animateMotion begin="-7.97691771467123s" dur="10s" repeatCount="indefinite"><mpath xlink:href="#ad"/></animateMotion></circle><path id="ae" d="M1418.535 361.919c0 35.032-8.571 10.062-18.634 10.062s-18.633 24.97-18.633-10.062 8.571-10.062 18.633-10.062 18.634-24.97 18.634 10.062z" fill="none" stroke="none"/><circle r="7.294" fill="#e44d26"><animateMotion begin="-7.0718864870596665s" dur="10s" repeatCount="indefinite"><mpath xlink:href="#ae"/></animateMotion></circle><path id="af" d="M97.762 650.072c0 22.492-5.504 6.46-11.965 6.46s-11.964 16.032-11.964-6.46 5.504-6.461 11.964-6.461 11.965-16.032 11.965 6.46z" fill="none" stroke="none"/><circle r="7.522" fill="#670de5"><animateMotion begin="-8.889666140937052s" dur="10s" repeatCount="indefinite"><mpath xlink:href="#af"/></animateMotion></circle><path id="ag" d="M1350.73 239.204c0 19.739-4.83 5.67-10.5 5.67s-10.499 14.069-10.499-5.67 4.83-5.67 10.5-5.67 10.499-14.068 10.499 5.67z" fill="none" stroke="none"/><circle r="7.493" fill="#34a7da"><animateMotion begin="-2.3288842998592796s" dur="10s" repeatCount="indefinite"><mpath xlink:href="#ag"/></animateMotion></circle><path id="ah" d="M33.085 77.323c0 25.139-6.15 7.22-13.371 7.22s-13.372 17.919-13.372-7.22 6.151-7.22 13.372-7.22 13.371-17.918 13.371 7.22z" fill="none" stroke="none"/><circle r="6.577" fill="#670de5"><animateMotion begin="-5.965936824227476s" dur="10s" repeatCount="indefinite"><mpath xlink:href="#ah"/></animateMotion></circle><path id="ai" d="M354.765 798.236c0 32.406-7.93 9.308-17.237 9.308s-17.237 23.098-17.237-9.308 7.929-9.308 17.237-9.308 17.237-23.098 17.237 9.308z" fill="none" stroke="none"/><circle r="5.158" fill="#fdd83c"><animateMotion begin="-0.22717187450101317s" dur="10s" repeatCount="indefinite"><mpath xlink:href="#ai"/></animateMotion></circle><path id="aj" d="M819.803 575.288c0 19.524-4.777 5.608-10.385 5.608s-10.385 13.916-10.385-5.608 4.777-5.608 10.385-5.608 10.385-13.916 10.385 5.608z" fill="none" stroke="none"/><circle r="5.967" fill="#670de5"><animateMotion begin="-5.115089869595078s" dur="10s" repeatCount="indefinite"><mpath xlink:href="#aj"/></animateMotion></circle><path id="ak" d="M472.392 643.179c0 24.89-6.09 7.149-13.239 7.149s-13.24 17.74-13.24-7.15 6.091-7.149 13.24-7.149 13.24-17.74 13.24 7.15z" fill="none" stroke="none"/><circle r="5.809" fill="#34a7da"><animateMotion begin="-9.664563327109587s" dur="10s" repeatCount="indefinite"><mpath xlink:href="#ak"/></animateMotion></circle><path id="al" d="M1050.424 596.187c0 22.906-5.605 6.58-12.184 6.58s-12.184 16.326-12.184-6.58 5.605-6.58 12.184-6.58 12.184-16.326 12.184 6.58z" fill="none" stroke="none"/><circle r="5.409" fill="#670de5"><animateMotion begin="-4.18475201427162s" dur="10s" repeatCount="indefinite"><mpath xlink:href="#al"/></animateMotion></circle><path id="am" d="M231.772 561.737c0 23.303-5.702 6.694-12.396 6.694s-12.395 16.61-12.395-6.694 5.702-6.693 12.395-6.693 12.396-16.61 12.396 6.693z" fill="none" stroke="none"/><circle r="7.149" fill="#8bc54c"><animateMotion begin="-6.450661703018019s" dur="10s" repeatCount="indefinite"><mpath xlink:href="#am"/></animateMotion></circle><path id="an" d="M344.728 858.19c0 30.492-7.46 8.759-16.219 8.759s-16.219 21.733-16.219-8.759 7.46-8.758 16.22-8.758 16.218-21.734 16.218 8.758z" fill="none" stroke="none"/><circle r="7.356" fill="#34a7da"><animateMotion begin="-5.019239667710926s" dur="10s" repeatCount="indefinite"><mpath xlink:href="#an"/></animateMotion></circle><path id="ao" d="M1494.699 182.448c0 33.26-8.138 9.553-17.691 9.553s-17.691 23.706-17.691-9.553 8.138-9.553 17.691-9.553 17.691-23.706 17.691 9.553z" fill="none" stroke="none"/><circle r="4.553" fill="#e44d26"><animateMotion begin="-0.09414306691634122s" dur="10s" repeatCount="indefinite"><mpath xlink:href="#ao"/></animateMotion></circle><path id="ap" d="M1643.815 696.531c0 34.457-8.431 9.897-18.329 9.897s-18.328 24.56-18.328-9.897 8.431-9.897 18.328-9.897 18.329-24.56 18.329 9.897z" fill="none" stroke="none"/><circle r="4.387" fill="#670de5"><animateMotion begin="-5.131677384871636s" dur="10s" repeatCount="indefinite"><mpath xlink:href="#ap"/></animateMotion></circle><path id="aq" d="M61.413 154.68c0 24.077-5.891 6.916-12.807 6.916S35.8 178.756 35.8 154.681s5.891-6.916 12.806-6.916 12.807-17.16 12.807 6.916z" fill="none" stroke="none"/><circle r="6.506" fill="#e44d26"><animateMotion begin="-8.03819734107652s" dur="10s" repeatCount="indefinite"><mpath xlink:href="#aq"/></animateMotion></circle><path id="ar" d="M71.93 67.897c0 27.505-6.73 7.9-14.631 7.9s-14.63 19.605-14.63-7.9 6.73-7.9 14.63-7.9 14.63-19.606 14.63 7.9z" fill="none" stroke="none"/><circle r="7.015" fill="#fdd83c"><animateMotion begin="-1.6408158949111118s" dur="10s" repeatCount="indefinite"><mpath xlink:href="#ar"/></animateMotion></circle><path id="as" d="M1225.648 280.051c0 26.428-6.466 7.591-14.057 7.591s-14.058 18.837-14.058-7.591 6.467-7.591 14.058-7.591 14.057-18.837 14.057 7.591z" fill="none" stroke="none"/><circle r="4.02" fill="#670de5"><animateMotion begin="-1.1222493508578868s" dur="10s" repeatCount="indefinite"><mpath xlink:href="#as"/></animateMotion></circle><path id="at" d="M1159.273 45.625c0 29.87-7.309 8.58-15.888 8.58s-15.888 21.29-15.888-8.58 7.309-8.58 15.888-8.58 15.888-21.289 15.888 8.58z" fill="none" stroke="none"/><circle r="5.481" fill="#670de5"><animateMotion begin="-1.1933714874462886s" dur="10s" repeatCount="indefinite"><mpath xlink:href="#at"/></animateMotion></circle><path id="au" d="M1435.229 207.085c0 34.593-8.465 9.936-18.4 9.936s-18.402 24.657-18.402-9.936 8.465-9.937 18.401-9.937 18.4-24.657 18.4 9.937z" fill="none" stroke="none"/><circle r="6.775" fill="#fdd83c"><animateMotion begin="-1.7334587924827805s" dur="10s" repeatCount="indefinite"><mpath xlink:href="#au"/></animateMotion></circle></g></svg>