<?xml version="1.0" encoding="utf-8"?>
<!-- Generator: Adobe Illustrator 23.0.1, SVG Export Plug-In . SVG Version: 6.00 Build 0)  -->
<svg version="1.1" id="Layer_1" xmlns="http://www.w3.org/2000/svg" xmlns:xlink="http://www.w3.org/1999/xlink" x="0px" y="0px"
	 viewBox="0 0 1920 1080" style="enable-background:new 0 0 1920 1080;" xml:space="preserve">
<style type="text/css">
	.st0{fill:none;}
	.st1{fill:#FDD83C;}
	.st2{fill:#34A9DB;}
	.st3{fill:#650CDF;}
	.st4{fill:#509545;}
	.st5{fill:#FF708E;}
	.st6{fill:#F16529;}
</style>
<g>
	<path id="a" class="st0" d="M825,945.3c0,27.3-6.7,7.8-14.5,7.8s-14.5,19.4-14.5-7.8s6.7-7.8,14.5-7.8S825,918,825,945.3z"/>
	<circle class="st1" cx="0" cy="0" r="4.8">
	
		<animateMotion  accumulate="none" additive="replace" begin="-5.337888413542305s" calcMode="paced" dur="10.53s" fill="remove" repeatCount="indefinite" restart="always">
		<mpath></mpath>
	</animateMotion>
	</circle>
	<path id="b" class="st0" d="M1601.8,1013.2c0,25.1-6.1,7.2-13.4,7.2s-13.3,17.9-13.3-7.2s6.1-7.2,13.3-7.2
		S1601.8,988.1,1601.8,1013.2L1601.8,1013.2z"/>
	<circle class="st2" cx="0" cy="0" r="4.6">
	
		<animateMotion  accumulate="none" additive="replace" begin="-4.497201195138269s" calcMode="paced" dur="10.53s" fill="remove" repeatCount="indefinite" restart="always">
		<mpath></mpath>
	</animateMotion>
	</circle>
	<path id="c" class="st0" d="M1481.9,433.3c0,25.8-6.3,7.4-13.7,7.4c-7.4,0-13.7,18.4-13.7-7.4s6.3-7.4,13.7-7.4
		C1475.6,425.9,1481.9,407.5,1481.9,433.3z"/>
	<circle class="st3" cx="0" cy="0" r="7.5">
	
		<animateMotion  accumulate="none" additive="replace" begin="-4.58699019515656s" calcMode="paced" dur="10.53s" fill="remove" repeatCount="indefinite" restart="always">
		<mpath></mpath>
	</animateMotion>
	</circle>
	<path id="d" class="st0" d="M1270.5,800.2c0,23.9-5.8,6.9-12.7,6.9s-12.7,17-12.7-6.9s5.8-6.9,12.7-6.9S1270.5,776.3,1270.5,800.2z
		"/>
	<circle class="st4" cx="0" cy="0" r="7.5">
	
		<animateMotion  accumulate="none" additive="replace" begin="-9.176828364343903s" calcMode="paced" dur="10.53s" fill="remove" repeatCount="indefinite" restart="always">
		<mpath></mpath>
	</animateMotion>
	</circle>
	<path id="e" class="st0" d="M1412.8,277.5c0,21-5.1,6-11.2,6s-11.2,15-11.2-6s5.1-6,11.2-6C1407.6,271.4,1412.8,256.4,1412.8,277.5
		z"/>
	<circle class="st5" cx="0" cy="0" r="6.8">
	
		<animateMotion  accumulate="none" additive="replace" begin="-9.865973146344992s" calcMode="paced" dur="10.53s" fill="remove" repeatCount="indefinite" restart="always">
		<mpath></mpath>
	</animateMotion>
	</circle>
	<path id="f" class="st0" d="M1180.8,781.3c0,26.6-6.5,7.6-14.2,7.6s-14.2,19-14.2-7.6s6.5-7.6,14.2-7.6S1180.8,754.7,1180.8,781.3
		L1180.8,781.3z"/>
	<circle class="st4" cx="0" cy="0" r="4.7">
	
		<animateMotion  accumulate="none" additive="replace" begin="-7.931591838542365s" calcMode="paced" dur="10.53s" fill="remove" repeatCount="indefinite" restart="always">
		<mpath></mpath>
	</animateMotion>
	</circle>
	<path id="g" class="st0" d="M140.1,174.6c0,30.5-7.5,8.8-16.2,8.8s-16.2,21.7-16.2-8.8s7.5-8.8,16.2-8.8S140.1,144.1,140.1,174.6z"
		/>
	<circle class="st5" cx="0" cy="0" r="7">
	
		<animateMotion  accumulate="none" additive="replace" begin="-9.496817705181057s" calcMode="paced" dur="10.53s" fill="remove" repeatCount="indefinite" restart="always">
		<mpath></mpath>
	</animateMotion>
	</circle>
	<path id="h" class="st0" d="M1832,472.8c0,35.6-8.7,10.2-19,10.2s-19,25.4-19-10.2s8.7-10.2,19-10.2S1832,437.1,1832,472.8z"/>
	<circle class="st6" cx="0" cy="0" r="4.8">
	
		<animateMotion  accumulate="none" additive="replace" begin="-2.713379627856092s" calcMode="paced" dur="10.53s" fill="remove" repeatCount="indefinite" restart="always">
		<mpath></mpath>
	</animateMotion>
	</circle>
	<path id="i" class="st0" d="M285.7,998.3c0,31.2-7.6,9-16.6,9s-16.6,22.2-16.6-9s7.6-9,16.6-9S285.7,967.2,285.7,998.3z"/>
	<circle class="st2" cx="0" cy="0" r="5.3">
	
		<animateMotion  accumulate="none" additive="replace" begin="-1.2488654143525322s" calcMode="paced" dur="10.53s" fill="remove" repeatCount="indefinite" restart="always">
		<mpath></mpath>
	</animateMotion>
	</circle>
	<path id="j" class="st0" d="M1662.1,782.7c0,29.1-7.1,8.4-15.5,8.4s-15.5,20.7-15.5-8.4s7.1-8.4,15.5-8.4
		S1662.1,753.6,1662.1,782.7L1662.1,782.7z"/>
	<circle class="st5" cx="0" cy="0" r="7.9">
	
		<animateMotion  accumulate="none" additive="replace" begin="-4.1558224951579685s" calcMode="paced" dur="10.53s" fill="remove" repeatCount="indefinite" restart="always">
		<mpath></mpath>
	</animateMotion>
	</circle>
	<path id="k" class="st0" d="M57,787c0,30.8-7.5,8.8-16.4,8.8s-16.4,21.9-16.4-8.8s7.5-8.8,16.4-8.8S57,756.2,57,787L57,787z"/>
	<circle class="st1" cx="0" cy="0" r="7.2">
	
		<animateMotion  accumulate="none" additive="replace" begin="-3.6652626000120465s" calcMode="paced" dur="10.53s" fill="remove" repeatCount="indefinite" restart="always">
		<mpath></mpath>
	</animateMotion>
	</circle>
	<path id="l" class="st0" d="M1366.6,432.3c0,33.9-8.3,9.7-18,9.7c-9.7,0-18,24.2-18-9.7s8.3-9.7,18-9.7
		C1358.3,422.6,1366.6,398.4,1366.6,432.3L1366.6,432.3z"/>
	<circle class="st3" cx="0" cy="0" r="4.6">
	
		<animateMotion  accumulate="none" additive="replace" begin="-5.655710303339451s" calcMode="paced" dur="10.53s" fill="remove" repeatCount="indefinite" restart="always">
		<mpath></mpath>
	</animateMotion>
	</circle>
	<path id="m" class="st0" d="M858.4,30.9c0,23.2-5.7,6.7-12.3,6.7s-12.3,16.5-12.3-6.7s5.7-6.7,12.3-6.7S858.4,7.7,858.4,30.9z"/>
	<circle class="st2" cx="0" cy="0" r="4.9">
	
		<animateMotion  accumulate="none" additive="replace" begin="-5.725957874766428s" calcMode="paced" dur="10.53s" fill="remove" repeatCount="indefinite" restart="always">
		<mpath></mpath>
	</animateMotion>
	</circle>
	<path id="n" class="st0" d="M113.1,635.9c0,28.1-6.9,8.1-14.9,8.1s-14.9,20-14.9-8.1s6.9-8.1,14.9-8.1S113.1,607.8,113.1,635.9
		L113.1,635.9z"/>
	<circle class="st5" cx="0" cy="0" r="8.5">
	
		<animateMotion  accumulate="none" additive="replace" begin="-4.894858566728429s" calcMode="paced" dur="10.53s" fill="remove" repeatCount="indefinite" restart="always">
		<mpath></mpath>
	</animateMotion>
	</circle>
	<path id="o" class="st0" d="M337.9,40.6c0,33.6-8.2,9.7-17.9,9.7s-17.9,24-17.9-9.7s8.2-9.7,17.9-9.7S337.9,6.9,337.9,40.6z"/>
	<circle class="st4" cx="0" cy="0" r="7.7">
	
		<animateMotion  accumulate="none" additive="replace" begin="-2.578256083456351s" calcMode="paced" dur="10.53s" fill="remove" repeatCount="indefinite" restart="always">
		<mpath></mpath>
	</animateMotion>
	</circle>
	<path id="p" class="st0" d="M141.2,453.8c0,32.5-8,9.3-17.3,9.3s-17.3,23.2-17.3-9.3s8-9.3,17.3-9.3S141.2,421.2,141.2,453.8z"/>
	<circle class="st3" cx="0" cy="0" r="6.1">
	
		<animateMotion  accumulate="none" additive="replace" begin="-1.7617922536661672s" calcMode="paced" dur="10.53s" fill="remove" repeatCount="indefinite" restart="always">
		<mpath></mpath>
	</animateMotion>
	</circle>
	<path id="q" class="st0" d="M1462,312.7c0,35-8.6,10.1-18.6,10.1s-18.6,25-18.6-10.1s8.6-10.1,18.6-10.1S1462,277.7,1462,312.7
		L1462,312.7z"/>
	<circle class="st2" cx="0" cy="0" r="5.8">
	
		<animateMotion  accumulate="none" additive="replace" begin="-9.843356934825385s" calcMode="paced" dur="10.53s" fill="remove" repeatCount="indefinite" restart="always">
		<mpath></mpath>
	</animateMotion>
	</circle>
	<path id="r" class="st0" d="M194.5,812.1c0,23.8-5.8,6.8-12.7,6.8s-12.7,17-12.7-6.8s5.8-6.8,12.7-6.8S194.5,788.3,194.5,812.1z"/>
	<circle class="st2" cx="0" cy="0" r="7.9">
	
		<animateMotion  accumulate="none" additive="replace" begin="-8.205230462173205s" calcMode="paced" dur="10.53s" fill="remove" repeatCount="indefinite" restart="always">
		<mpath></mpath>
	</animateMotion>
	</circle>
	<path id="s" class="st0" d="M372.7,1029.6c0,31.6-7.7,9.1-16.8,9.1s-16.8,22.5-16.8-9.1s7.7-9.1,16.8-9.1S372.7,998.1,372.7,1029.6
		z"/>
	<circle class="st1" cx="0" cy="0" r="5.1">
	
		<animateMotion  accumulate="none" additive="replace" begin="-8.55179526633997s" calcMode="paced" dur="10.53s" fill="remove" repeatCount="indefinite" restart="always">
		<mpath></mpath>
	</animateMotion>
	</circle>
	<path id="t" class="st0" d="M1902.8,417.9c0,29-7.1,8.3-15.4,8.3s-15.4,20.7-15.4-8.3s7.1-8.3,15.4-8.3S1902.8,388.9,1902.8,417.9z
		"/>
	<circle class="st2" cx="0" cy="0" r="8.2">
	
		<animateMotion  accumulate="none" additive="replace" begin="-5.414358900262128s" calcMode="paced" dur="10.53s" fill="remove" repeatCount="indefinite" restart="always">
		<mpath></mpath>
	</animateMotion>
	</circle>
	<path id="u" class="st0" d="M74.4,133.2c0,34.4-8.4,9.9-18.3,9.9s-18.3,24.5-18.3-9.9s8.4-9.9,18.3-9.9S74.4,98.8,74.4,133.2z"/>
	<circle class="st2" cx="0" cy="0" r="4.6">
	
		<animateMotion  accumulate="none" additive="replace" begin="-2.9512408521448403s" calcMode="paced" dur="10.53s" fill="remove" repeatCount="indefinite" restart="always">
		<mpath></mpath>
	</animateMotion>
	</circle>
	<path id="v" class="st0" d="M1699.9,474.5c0,21.6-5.3,6.2-11.5,6.2s-11.5,15.4-11.5-6.2s5.3-6.2,11.5-6.2
		S1699.9,452.9,1699.9,474.5L1699.9,474.5z"/>
	<circle class="st3" cx="0" cy="0" r="8.3">
	
		<animateMotion  accumulate="none" additive="replace" begin="-2.673259766753098s" calcMode="paced" dur="10.53s" fill="remove" repeatCount="indefinite" restart="always">
		<mpath></mpath>
	</animateMotion>
	</circle>
	<path id="w" class="st0" d="M118.5,505.2c0,21.6-5.3,6.2-11.5,6.2s-11.5,15.4-11.5-6.2s5.3-6.2,11.5-6.2S118.5,483.6,118.5,505.2z"
		/>
	<circle class="st1" cx="0" cy="0" r="5.7">
	
		<animateMotion  accumulate="none" additive="replace" begin="-10.459150484651763s" calcMode="paced" dur="10.53s" fill="remove" repeatCount="indefinite" restart="always">
		<mpath></mpath>
	</animateMotion>
	</circle>
	<path id="x" class="st0" d="M866.6,1005.9c0,26.6-6.5,7.6-14.2,7.6s-14.2,19-14.2-7.6s6.5-7.6,14.2-7.6S866.6,979.3,866.6,1005.9z"
		/>
	<circle class="st5" cx="0" cy="0" r="6.5">
	
		<animateMotion  accumulate="none" additive="replace" begin="-6.115034125007163s" calcMode="paced" dur="10.53s" fill="remove" repeatCount="indefinite" restart="always">
		<mpath></mpath>
	</animateMotion>
	</circle>
	<path id="y" class="st0" d="M1077.1,882.7c0,27.8-6.8,8-14.8,8c-8,0-14.8,19.8-14.8-8c0-27.8,6.8-8,14.8-8
		C1070.3,874.7,1077.1,854.9,1077.1,882.7L1077.1,882.7z"/>
	<circle class="st1" cx="0" cy="0" r="6.1">
	
		<animateMotion  accumulate="none" additive="replace" begin="-7.215118905641375s" calcMode="paced" dur="10.53s" fill="remove" repeatCount="indefinite" restart="always">
		<mpath></mpath>
	</animateMotion>
	</circle>
	<path id="z" class="st0" d="M378.5,942.6c0,22.1-5.4,6.3-11.7,6.3s-11.7,15.7-11.7-6.3s5.4-6.3,11.7-6.3S378.5,920.5,378.5,942.6z"
		/>
	<circle class="st4" cx="0" cy="0" r="6.8">
	
		<animateMotion  accumulate="none" additive="replace" begin="-8.746971430517041s" calcMode="paced" dur="10.53s" fill="remove" repeatCount="indefinite" restart="always">
		<mpath></mpath>
	</animateMotion>
	</circle>
	<path id="A" class="st0" d="M1285.6,294.6c0,23.7-5.8,6.8-12.6,6.8s-12.6,16.9-12.6-6.8s5.8-6.8,12.6-6.8
		S1285.6,270.9,1285.6,294.6z"/>
	<circle class="st1" cx="0" cy="0" r="6.6">
	
		<animateMotion  accumulate="none" additive="replace" begin="-0.3507786175027707s" calcMode="paced" dur="10.53s" fill="remove" repeatCount="indefinite" restart="always">
		<mpath></mpath>
	</animateMotion>
	</circle>
	<path id="B" class="st0" d="M937.8,916.7c0,31.6-7.7,9.1-16.8,9.1s-16.8,22.5-16.8-9.1c0-31.6,7.7-9.1,16.8-9.1
		S937.8,885.1,937.8,916.7z"/>
	<circle class="st1" cx="0" cy="0" r="4.5">
	
		<animateMotion  accumulate="none" additive="replace" begin="-0.3686579000648666s" calcMode="paced" dur="10.53s" fill="remove" repeatCount="indefinite" restart="always">
		<mpath></mpath>
	</animateMotion>
	</circle>
	<path id="C" class="st0" d="M1373.7,936.5c0,32.2-7.9,9.3-17.1,9.3c-9.3,0-17.1,23-17.1-9.3s7.9-9.3,17.1-9.3
		S1373.7,904.3,1373.7,936.5z"/>
	<circle class="st6" cx="0" cy="0" r="6.1">
	
		<animateMotion  accumulate="none" additive="replace" begin="-7.1700920451879515s" calcMode="paced" dur="10.53s" fill="remove" repeatCount="indefinite" restart="always">
		<mpath></mpath>
	</animateMotion>
	</circle>
	<path id="D" class="st0" d="M1528.4,723.1c0,31-7.6,8.9-16.5,8.9s-16.5,22.1-16.5-8.9s7.6-8.9,16.5-8.9S1528.4,692,1528.4,723.1z"
		/>
	<circle class="st1" cx="0" cy="0" r="7.4">
	
		<animateMotion  accumulate="none" additive="replace" begin="-5.754989752193539s" calcMode="paced" dur="10.53s" fill="remove" repeatCount="indefinite" restart="always">
		<mpath></mpath>
	</animateMotion>
	</circle>
	<path id="E" class="st0" d="M602.9,1067.9c0,22.6-5.5,6.5-12,6.5s-12,16.1-12-6.5s5.5-6.5,12-6.5S602.9,1045.2,602.9,1067.9z"/>
	<circle class="st2" cx="0" cy="0" r="8.8">
	
		<animateMotion  accumulate="none" additive="replace" begin="-4.111491006828051s" calcMode="paced" dur="10.53s" fill="remove" repeatCount="indefinite" restart="always">
		<mpath></mpath>
	</animateMotion>
	</circle>
	<path id="F" class="st0" d="M1469,797.1c0,19.5-4.8,5.6-10.4,5.6s-10.4,13.9-10.4-5.6s4.8-5.6,10.4-5.6S1469,777.6,1469,797.1
		L1469,797.1z"/>
	<circle class="st4" cx="0" cy="0" r="8.5">
	
		<animateMotion  accumulate="none" additive="replace" begin="-9.203114855721973s" calcMode="paced" dur="10.53s" fill="remove" repeatCount="indefinite" restart="always">
		<mpath></mpath>
	</animateMotion>
	</circle>
	<path id="G" class="st0" d="M1102.2,823.1c0,28.6-7,8.2-15.2,8.2s-15.2,20.4-15.2-8.2s7-8.2,15.2-8.2S1102.2,794.5,1102.2,823.1
		L1102.2,823.1z"/>
	<circle class="st4" cx="0" cy="0" r="8.9">
	
		<animateMotion  accumulate="none" additive="replace" begin="-7.105447294182118s" calcMode="paced" dur="10.53s" fill="remove" repeatCount="indefinite" restart="always">
		<mpath></mpath>
	</animateMotion>
	</circle>
	<path id="H" class="st0" d="M1337.1,921.3c0,25.2-6.2,7.2-13.4,7.2s-13.4,17.9-13.4-7.2s6.2-7.2,13.4-7.2
		C1330.9,914.1,1337.1,896.1,1337.1,921.3z"/>
	<circle class="st1" cx="0" cy="0" r="6.7">
	
		<animateMotion  accumulate="none" additive="replace" begin="-4.637642182645426s" calcMode="paced" dur="10.53s" fill="remove" repeatCount="indefinite" restart="always">
		<mpath></mpath>
	</animateMotion>
	</circle>
	<path id="I" class="st0" d="M1495,990.5c0,33.9-8.3,9.7-18,9.7c-9.7,0-18,24.1-18-9.7c0-33.9,8.3-9.7,18-9.7
		C1486.7,980.8,1495,956.6,1495,990.5z"/>
	<circle class="st6" cx="0" cy="0" r="8.4">
	
		<animateMotion  accumulate="none" additive="replace" begin="-2.8595936907557573s" calcMode="paced" dur="10.53s" fill="remove" repeatCount="indefinite" restart="always">
		<mpath></mpath>
	</animateMotion>
	</circle>
	<path id="J" class="st0" d="M1837.6,963.7c0,20.7-5.1,5.9-11,5.9s-11,14.7-11-5.9s5.1-5.9,11-5.9S1837.6,943,1837.6,963.7z"/>
	<circle class="st3" cx="0" cy="0" r="7.6">
	
		<animateMotion  accumulate="none" additive="replace" begin="-5.008194083432713s" calcMode="paced" dur="10.53s" fill="remove" repeatCount="indefinite" restart="always">
		<mpath></mpath>
	</animateMotion>
	</circle>
	<path id="K" class="st0" d="M1519,358.1c0,21.5-5.3,6.2-11.4,6.2s-11.4,15.3-11.4-6.2s5.3-6.2,11.4-6.2S1519,336.6,1519,358.1
		L1519,358.1z"/>
	<circle class="st4" cx="0" cy="0" r="5.6">
	
		<animateMotion  accumulate="none" additive="replace" begin="-8.587273546884365s" calcMode="paced" dur="10.53s" fill="remove" repeatCount="indefinite" restart="always">
		<mpath></mpath>
	</animateMotion>
	</circle>
	<path id="L" class="st0" d="M446.9,944c0,31.9-7.8,9.2-17,9.2s-17,22.7-17-9.2s7.8-9.2,17-9.2S446.9,912.1,446.9,944z"/>
	<circle class="st6" cx="0" cy="0" r="5.3">
	
		<animateMotion  accumulate="none" additive="replace" begin="-3.696646462382287s" calcMode="paced" dur="10.53s" fill="remove" repeatCount="indefinite" restart="always">
		<mpath></mpath>
	</animateMotion>
	</circle>
	<path id="M" class="st0" d="M1303.7,200.4c0,35.3-8.6,10.1-18.8,10.1s-18.8,25.1-18.8-10.1s8.6-10.1,18.8-10.1
		S1303.7,165.2,1303.7,200.4z"/>
	<circle class="st4" cx="0" cy="0" r="4.7">
	
		<animateMotion  accumulate="none" additive="replace" begin="-10.265332403737244s" calcMode="paced" dur="10.53s" fill="remove" repeatCount="indefinite" restart="always">
		<mpath></mpath>
	</animateMotion>
	</circle>
	<path id="N" class="st0" d="M175.7,131.4c0,32.8-8,9.4-17.4,9.4s-17.4,23.3-17.4-9.4s8-9.4,17.4-9.4S175.7,98.7,175.7,131.4z"/>
	<circle class="st1" cx="0" cy="0" r="4.8">
	
		<animateMotion  accumulate="none" additive="replace" begin="-1.6972283667700765s" calcMode="paced" dur="10.53s" fill="remove" repeatCount="indefinite" restart="always">
		<mpath></mpath>
	</animateMotion>
	</circle>
	<path id="O" class="st0" d="M1279.1,740.6c0,35.7-8.7,10.3-19,10.3s-19,25.4-19-10.3s8.7-10.2,19-10.2S1279.1,704.9,1279.1,740.6
		L1279.1,740.6z"/>
	<circle class="st1" cx="0" cy="0" r="8.2">
	
		<animateMotion  accumulate="none" additive="replace" begin="-8.54395954249036s" calcMode="paced" dur="10.53s" fill="remove" repeatCount="indefinite" restart="always">
		<mpath></mpath>
	</animateMotion>
	</circle>
	<path id="P" class="st0" d="M186.3,683.8c0,26.9-6.6,7.7-14.3,7.7s-14.3,19.2-14.3-7.7s6.6-7.7,14.3-7.7S186.3,656.9,186.3,683.8
		L186.3,683.8z"/>
	<circle class="st1" cx="0" cy="0" r="8.2">
	
		<animateMotion  accumulate="none" additive="replace" begin="-1.6194909868214071s" calcMode="paced" dur="10.53s" fill="remove" repeatCount="indefinite" restart="always">
		<mpath></mpath>
	</animateMotion>
	</circle>
	<path id="Q" class="st0" d="M1239.1,802c0,27.8-6.8,8-14.8,8s-14.8,19.8-14.8-8s6.8-8,14.8-8S1239.1,774.2,1239.1,802z"/>
	<circle class="st2" cx="0" cy="0" r="8.7">
	
		<animateMotion  accumulate="none" additive="replace" begin="-0.10833781025510753s" calcMode="paced" dur="10.53s" fill="remove" repeatCount="indefinite" restart="always">
		<mpath></mpath>
	</animateMotion>
	</circle>
	<path id="R" class="st0" d="M752.7,34.4c0,23-5.6,6.6-12.2,6.6s-12.2,16.4-12.2-6.6s5.6-6.6,12.2-6.6S752.7,11.4,752.7,34.4z"/>
	<circle class="st6" cx="0" cy="0" r="5.5">
	
		<animateMotion  accumulate="none" additive="replace" begin="-10.15125824730465s" calcMode="paced" dur="10.53s" fill="remove" repeatCount="indefinite" restart="always">
		<mpath></mpath>
	</animateMotion>
	</circle>
	<path id="S" class="st0" d="M666.1,184.6c0,21.2-5.2,6.1-11.3,6.1s-11.3,15.1-11.3-6.1s5.2-6.1,11.3-6.1S666.1,163.3,666.1,184.6
		L666.1,184.6z"/>
	<circle class="st1" cx="0" cy="0" r="4.6">
	
		<animateMotion  accumulate="none" additive="replace" begin="-3.742225273665549s" calcMode="paced" dur="10.53s" fill="remove" repeatCount="indefinite" restart="always">
		<mpath></mpath>
	</animateMotion>
	</circle>
	<path id="T" class="st0" d="M1057.5,833.6c0,31.9-7.8,9.2-17,9.2s-17,22.7-17-9.2s7.8-9.2,17-9.2S1057.5,801.7,1057.5,833.6z"/>
	<circle class="st4" cx="0" cy="0" r="8.7">
	
		<animateMotion  accumulate="none" additive="replace" begin="-0.19976714264652393s" calcMode="paced" dur="10.53s" fill="remove" repeatCount="indefinite" restart="always">
		<mpath></mpath>
	</animateMotion>
	</circle>
	<path id="U" class="st0" d="M1902.8,247.7c0,25-6.1,7.2-13.3,7.2s-13.3,17.8-13.3-7.2s6.1-7.2,13.3-7.2S1902.8,222.8,1902.8,247.7z
		"/>
	<circle class="st3" cx="0" cy="0" r="6.4">
	
		<animateMotion  accumulate="none" additive="replace" begin="-6.377927484983383s" calcMode="paced" dur="10.53s" fill="remove" repeatCount="indefinite" restart="always">
		<mpath></mpath>
	</animateMotion>
	</circle>
	<path id="V" class="st0" d="M1542.9,617.5c0,22.7-5.6,6.5-12.1,6.5s-12.1,16.2-12.1-6.5s5.6-6.5,12.1-6.5
		S1542.9,594.8,1542.9,617.5z"/>
	<circle class="st2" cx="0" cy="0" r="8.4">
	
		<animateMotion  accumulate="none" additive="replace" begin="-2.190929088190059s" calcMode="paced" dur="10.53s" fill="remove" repeatCount="indefinite" restart="always">
		<mpath></mpath>
	</animateMotion>
	</circle>
	<path id="W" class="st0" d="M1815.8,201.3c0,21.4-5.2,6.1-11.4,6.1s-11.4,15.3-11.4-6.1s5.2-6.1,11.4-6.1
		S1815.8,179.9,1815.8,201.3L1815.8,201.3z"/>
	<circle class="st6" cx="0" cy="0" r="8.1">
	
		<animateMotion  accumulate="none" additive="replace" begin="-5.44958093230043s" calcMode="paced" dur="10.53s" fill="remove" repeatCount="indefinite" restart="always">
		<mpath></mpath>
	</animateMotion>
	</circle>
	<path id="X" class="st0" d="M1736.9,955.2c0,34.4-8.4,9.9-18.3,9.9s-18.3,24.5-18.3-9.9s8.4-9.9,18.3-9.9
		S1736.9,920.7,1736.9,955.2z"/>
	<circle class="st2" cx="0" cy="0" r="8.2">
	
		<animateMotion  accumulate="none" additive="replace" begin="-5.453879110235061s" calcMode="paced" dur="10.53s" fill="remove" repeatCount="indefinite" restart="always">
		<mpath></mpath>
	</animateMotion>
	</circle>
	<path id="Y" class="st0" d="M1757.6,294.6c0,31.6-7.7,9.1-16.8,9.1s-16.8,22.5-16.8-9.1s7.7-9.1,16.8-9.1S1757.6,263,1757.6,294.6z
		"/>
	<circle class="st5" cx="0" cy="0" r="4.8">
	
		<animateMotion  accumulate="none" additive="replace" begin="-2.4856583922049555s" calcMode="paced" dur="10.53s" fill="remove" repeatCount="indefinite" restart="always">
		<mpath></mpath>
	</animateMotion>
	</circle>
	<path id="Z" class="st0" d="M855.7,11.4c0,35.2-8.6,10.1-18.7,10.1s-18.7,25.1-18.7-10.1S826.8,1.3,837,1.3S855.7-23.8,855.7,11.4
		L855.7,11.4z"/>
	<circle class="st5" cx="0" cy="0" r="5.6">
	
		<animateMotion  accumulate="none" additive="replace" begin="-10.297131115187394s" calcMode="paced" dur="10.53s" fill="remove" repeatCount="indefinite" restart="always">
		<mpath></mpath>
	</animateMotion>
	</circle>
	<path id="aa" class="st0" d="M1561.6,124.8c0,28.5-7,8.2-15.1,8.2s-15.1,20.3-15.1-8.2s7-8.2,15.1-8.2S1561.6,96.3,1561.6,124.8z"
		/>
	<circle class="st4" cx="0" cy="0" r="8.3">
	
		<animateMotion  accumulate="none" additive="replace" begin="-9.199659616400394s" calcMode="paced" dur="10.53s" fill="remove" repeatCount="indefinite" restart="always">
		<mpath></mpath>
	</animateMotion>
	</circle>
	<path id="ab" class="st0" d="M995,97.4c0,21.8-5.3,6.3-11.6,6.3s-11.6,15.6-11.6-6.3s5.3-6.3,11.6-6.3S995,75.6,995,97.4z"/>
	<circle class="st6" cx="0" cy="0" r="8.9">
	
		<animateMotion  accumulate="none" additive="replace" begin="-4.707894278699586s" calcMode="paced" dur="10.53s" fill="remove" repeatCount="indefinite" restart="always">
		<mpath></mpath>
	</animateMotion>
	</circle>
	<path id="ac" class="st0" d="M1549.1,744.1c0,26.6-6.5,7.6-14.1,7.6s-14.1,19-14.1-7.6s6.5-7.6,14.1-7.6S1549.1,717.5,1549.1,744.1
		z"/>
	<circle class="st4" cx="0" cy="0" r="4.9">
	
		<animateMotion  accumulate="none" additive="replace" begin="-10.066803379257776s" calcMode="paced" dur="10.53s" fill="remove" repeatCount="indefinite" restart="always">
		<mpath></mpath>
	</animateMotion>
	</circle>
	<path id="ad" class="st0" d="M1724.5,72.1c0,29.8-7.3,8.6-15.9,8.6s-15.9,21.2-15.9-8.6s7.3-8.6,15.9-8.6S1724.5,42.3,1724.5,72.1z
		"/>
	<circle class="st2" cx="0" cy="0" r="7.9">
	
		<animateMotion  accumulate="none" additive="replace" begin="-8.658074318349438s" calcMode="paced" dur="10.53s" fill="remove" repeatCount="indefinite" restart="always">
		<mpath></mpath>
	</animateMotion>
	</circle>
	<path id="ae" class="st0" d="M1265.8,672.2c0,22.7-5.6,6.5-12.1,6.5s-12.1,16.2-12.1-6.5s5.6-6.5,12.1-6.5
		S1265.8,649.5,1265.8,672.2z"/>
	<circle class="st6" cx="0" cy="0" r="8.5">
	
		<animateMotion  accumulate="none" additive="replace" begin="-10.11152660900457s" calcMode="paced" dur="10.53s" fill="remove" repeatCount="indefinite" restart="always">
		<mpath></mpath>
	</animateMotion>
	</circle>
	<path id="af" class="st0" d="M1853.2,132.5c0,21.6-5.3,6.2-11.5,6.2s-11.5,15.4-11.5-6.2s5.3-6.2,11.5-6.2
		S1853.2,110.9,1853.2,132.5L1853.2,132.5z"/>
	<circle class="st5" cx="0" cy="0" r="8.9">
	
		<animateMotion  accumulate="none" additive="replace" begin="-0.4219174635991679s" calcMode="paced" dur="10.53s" fill="remove" repeatCount="indefinite" restart="always">
		<mpath></mpath>
	</animateMotion>
	</circle>
	<path id="ag" class="st0" d="M1724.5,253.2c0,31.5-7.7,9.1-16.8,9.1c-9.1,0-16.8,22.5-16.8-9.1s7.7-9.1,16.8-9.1
		C1716.8,244.2,1724.5,221.7,1724.5,253.2z"/>
	<circle class="st4" cx="0" cy="0" r="6.4">
	
		<animateMotion  accumulate="none" additive="replace" begin="-0.032772390584394316s" calcMode="paced" dur="10.53s" fill="remove" repeatCount="indefinite" restart="always">
		<mpath></mpath>
	</animateMotion>
	</circle>
	<path id="ah" class="st0" d="M1288.3,145.5c0,31.6-7.7,9.1-16.8,9.1s-16.8,22.5-16.8-9.1s7.7-9.1,16.8-9.1
		S1288.3,113.9,1288.3,145.5L1288.3,145.5z"/>
	<circle class="st3" cx="0" cy="0" r="8.2">
	
		<animateMotion  accumulate="none" additive="replace" begin="-3.5961873600203815s" calcMode="paced" dur="10.53s" fill="remove" repeatCount="indefinite" restart="always">
		<mpath></mpath>
	</animateMotion>
	</circle>
	<path id="ai" class="st0" d="M1775,711.5c0,32.2-7.9,9.2-17.1,9.2s-17.1,22.9-17.1-9.2s7.9-9.2,17.1-9.2S1775,679.3,1775,711.5z"/>
	<circle class="st2" cx="0" cy="0" r="7">
	
		<animateMotion  accumulate="none" additive="replace" begin="-9.353265689496757s" calcMode="paced" dur="10.53s" fill="remove" repeatCount="indefinite" restart="always">
		<mpath></mpath>
	</animateMotion>
	</circle>
	<path id="aj" class="st0" d="M1357.5,486.2c0,23.5-5.8,6.8-12.5,6.8c-6.8,0-12.5,16.8-12.5-6.8s5.8-6.8,12.5-6.8
		C1351.7,479.4,1357.5,462.7,1357.5,486.2L1357.5,486.2z"/>
	<circle class="st5" cx="0" cy="0" r="6">
	
		<animateMotion  accumulate="none" additive="replace" begin="-3.1146165729503648s" calcMode="paced" dur="10.53s" fill="remove" repeatCount="indefinite" restart="always">
		<mpath></mpath>
	</animateMotion>
	</circle>
	<path id="ak" class="st0" d="M296.7,1059c0,23.9-5.8,6.9-12.7,6.9s-12.7,17-12.7-6.9s5.8-6.9,12.7-6.9S296.7,1035.1,296.7,1059z"/>
	<circle class="st1" cx="0" cy="0" r="7.2">
	
		<animateMotion  accumulate="none" additive="replace" begin="-0.05695785829381807s" calcMode="paced" dur="10.53s" fill="remove" repeatCount="indefinite" restart="always">
		<mpath></mpath>
	</animateMotion>
	</circle>
	<path id="al" class="st0" d="M221.1,871.5c0,19.6-4.8,5.6-10.4,5.6s-10.4,14-10.4-5.6s4.8-5.6,10.4-5.6S221.1,851.9,221.1,871.5z"
		/>
	<circle class="st6" cx="0" cy="0" r="8.9">
	
		<animateMotion  accumulate="none" additive="replace" begin="-3.4206783104464344s" calcMode="paced" dur="10.53s" fill="remove" repeatCount="indefinite" restart="always">
		<mpath></mpath>
	</animateMotion>
	</circle>
	<path id="am" class="st0" d="M255.2,1009.3c0,29.8-7.3,8.5-15.8,8.5s-15.8,21.2-15.8-8.5s7.3-8.5,15.8-8.5
		S255.2,979.6,255.2,1009.3L255.2,1009.3z"/>
	<circle class="st3" cx="0" cy="0" r="5.1">
	
		<animateMotion  accumulate="none" additive="replace" begin="-3.8868545726169335s" calcMode="paced" dur="10.53s" fill="remove" repeatCount="indefinite" restart="always">
		<mpath></mpath>
	</animateMotion>
	</circle>
	<path id="an" class="st0" d="M126.8,849.6c0,19.7-4.8,5.6-10.5,5.6s-10.5,14-10.5-5.6s4.8-5.6,10.5-5.6S126.8,829.9,126.8,849.6z"
		/>
	<circle class="st1" cx="0" cy="0" r="6.5">
	
		<animateMotion  accumulate="none" additive="replace" begin="-1.8680946215939291s" calcMode="paced" dur="10.53s" fill="remove" repeatCount="indefinite" restart="always">
		<mpath></mpath>
	</animateMotion>
	</circle>
	<path id="ao" class="st0" d="M969,909c0,30.6-7.5,8.8-16.3,8.8s-16.3,21.8-16.3-8.8s7.5-8.8,16.3-8.8S969,878.4,969,909z"/>
	<circle class="st4" cx="0" cy="0" r="8.5">
	
		<animateMotion  accumulate="none" additive="replace" begin="-7.313429987278197s" calcMode="paced" dur="10.53s" fill="remove" repeatCount="indefinite" restart="always">
		<mpath></mpath>
	</animateMotion>
	</circle>
	<path id="ap" class="st0" d="M1700.3,282c0,29.5-7.2,8.5-15.7,8.5s-15.7,21-15.7-8.5s7.2-8.5,15.7-8.5S1700.3,252.5,1700.3,282z"/>
	<circle class="st4" cx="0" cy="0" r="8.6">
	
		<animateMotion  accumulate="none" additive="replace" begin="-4.358822457981781s" calcMode="paced" dur="10.53s" fill="remove" repeatCount="indefinite" restart="always">
		<mpath></mpath>
	</animateMotion>
	</circle>
	<path id="aq" class="st0" d="M78.4,72.1c0,25.6-6.3,7.3-13.6,7.3s-13.6,18.2-13.6-7.3s6.3-7.3,13.6-7.3S78.4,46.5,78.4,72.1z"/>
	<circle class="st3" cx="0" cy="0" r="7.2">
	
		<animateMotion  accumulate="none" additive="replace" begin="-5.458002804826011s" calcMode="paced" dur="10.53s" fill="remove" repeatCount="indefinite" restart="always">
		<mpath></mpath>
	</animateMotion>
	</circle>
	<path id="ar" class="st0" d="M1733.7,550.5c0,29.3-7.2,8.4-15.6,8.4s-15.6,20.9-15.6-8.4s7.2-8.4,15.6-8.4
		S1733.7,521.1,1733.7,550.5L1733.7,550.5z"/>
	<circle class="st1" cx="0" cy="0" r="7.9">
	
		<animateMotion  accumulate="none" additive="replace" begin="-4.581672906996708s" calcMode="paced" dur="10.53s" fill="remove" repeatCount="indefinite" restart="always">
		<mpath></mpath>
	</animateMotion>
	</circle>
	<path id="as" class="st0" d="M1151.1,994.8c0,26.5-6.5,7.6-14.1,7.6s-14.1,18.9-14.1-7.6s6.5-7.6,14.1-7.6
		S1151.1,968.3,1151.1,994.8z"/>
	<circle class="st3" cx="0" cy="0" r="5.7">
	
		<animateMotion  accumulate="none" additive="replace" begin="-1.0161094990284625s" calcMode="paced" dur="10.53s" fill="remove" repeatCount="indefinite" restart="always">
		<mpath></mpath>
	</animateMotion>
	</circle>
	<path id="at" class="st0" d="M1191.9,634.6c0,19.9-4.9,5.7-10.6,5.7s-10.6,14.2-10.6-5.7s4.9-5.7,10.6-5.7
		S1191.9,614.8,1191.9,634.6z"/>
	<circle class="st3" cx="0" cy="0" r="5.2">
	
		<animateMotion  accumulate="none" additive="replace" begin="-8.559297750320027s" calcMode="paced" dur="10.53s" fill="remove" repeatCount="indefinite" restart="always">
		<mpath></mpath>
	</animateMotion>
	</circle>
	<path id="au" class="st0" d="M1839.5,554.7c0,28.7-7,8.2-15.3,8.2s-15.3,20.5-15.3-8.2s7-8.2,15.3-8.2S1839.5,526,1839.5,554.7z"/>
	<circle class="st1" cx="0" cy="0" r="8.6">
	
		<animateMotion  accumulate="none" additive="replace" begin="-8.042644429924422s" calcMode="paced" dur="10.53s" fill="remove" repeatCount="indefinite" restart="always">
		<mpath></mpath>
	</animateMotion>
	</circle>
	<path id="av" class="st0" d="M1609.8,528.6c0,22.3-5.5,6.4-11.9,6.4s-11.9,15.9-11.9-6.4c0-22.3,5.5-6.4,11.9-6.4
		S1609.8,506.3,1609.8,528.6L1609.8,528.6z"/>
	<circle class="st2" cx="0" cy="0" r="5.9">
	
		<animateMotion  accumulate="none" additive="replace" begin="-4.357016817930108s" calcMode="paced" dur="10.53s" fill="remove" repeatCount="indefinite" restart="always">
		<mpath></mpath>
	</animateMotion>
	</circle>
	<path id="aw" class="st0" d="M1226.8,474.3c0,23.1-5.6,6.6-12.3,6.6s-12.3,16.5-12.3-6.6s5.6-6.6,12.3-6.6
		S1226.8,451.3,1226.8,474.3z"/>
	<circle class="st4" cx="0" cy="0" r="7.1">
	
		<animateMotion  accumulate="none" additive="replace" begin="-8.553142215389238s" calcMode="paced" dur="10.53s" fill="remove" repeatCount="indefinite" restart="always">
		<mpath></mpath>
	</animateMotion>
	</circle>
	<path id="ax" class="st0" d="M562.3,878.7c0,20.5-5,5.9-10.9,5.9s-10.9,14.6-10.9-5.9s5-5.9,10.9-5.9S562.3,858.2,562.3,878.7
		L562.3,878.7z"/>
	<circle class="st1" cx="0" cy="0" r="6.5">
	
		<animateMotion  accumulate="none" additive="replace" begin="-6.408009678210985s" calcMode="paced" dur="10.53s" fill="remove" repeatCount="indefinite" restart="always">
		<mpath></mpath>
	</animateMotion>
	</circle>
	<path id="ay" class="st0" d="M1491.1,889.7c0,27.3-6.7,7.8-14.5,7.8s-14.5,19.5-14.5-7.8s6.7-7.8,14.5-7.8
		S1491.1,862.4,1491.1,889.7z"/>
	<circle class="st6" cx="0" cy="0" r="8.3">
	
		<animateMotion  accumulate="none" additive="replace" begin="-5.9141268825639415s" calcMode="paced" dur="10.53s" fill="remove" repeatCount="indefinite" restart="always">
		<mpath></mpath>
	</animateMotion>
	</circle>
</g>
</svg>
